<?xml version="1.0" encoding="UTF-8" standalone="no"?><!DOCTYPE svg PUBLIC "-//W3C//DTD SVG 1.1//EN" "http://www.w3.org/Graphics/SVG/1.1/DTD/svg11.dtd"><svg width="100%" height="100%" viewBox="0 0 1652 2440" version="1.1" xmlns="http://www.w3.org/2000/svg" xmlns:xlink="http://www.w3.org/1999/xlink" xml:space="preserve" style="fill-rule:evenodd;clip-rule:evenodd;stroke-linecap:round;stroke-linejoin:round;stroke-miterlimit:1.5;"><path d="M825.555,72.917l781.502,1198.89l-1563,0l781.501,-1198.89Z" style="fill:#f00;"/><g><path d="M1147.86,1095.91l-182.237,15.801l-181.184,-15.801l181.184,-357.1l182.237,357.1Z" style="fill:#1589ad;fill-rule:nonzero;"/><path d="M965.62,738.812l182.237,357.1l-182.237,15.801" style="fill:#035670;fill-rule:nonzero;"/><path d="M1043.57,1088.54l-267.562,23.175l-270.722,-17.908l270.722,-530.91l267.562,525.643Z" style="fill:#1589ad;fill-rule:nonzero;"/><path d="M776.009,562.895l270.722,530.91l-270.722,17.908" style="fill:#057091;fill-rule:nonzero;"/><path d="M819.198,824.137l43.19,43.189l45.296,-44.243l-131.675,-260.188l-132.727,260.188l45.296,44.243l43.189,-43.189l44.242,43.189l43.189,-43.189Z" style="fill:#9adfef;fill-rule:nonzero;"/><path d="M776.009,867.326l43.189,-43.189l43.19,43.189l45.296,-44.243l-131.675,-260.188" style="fill:#7dd4e2;fill-rule:nonzero;"/><rect x="501.073" y="1090.64" width="648.964" height="21.068" style="fill:#057091;"/></g><path d="M825.555,72.917l752.639,1256.62l-1505.28,0l752.638,-1256.62Z" style="fill:none;stroke:#000;stroke-width:145.83px;"/><path d="M81.193,1381.36c163.588,-79.684 412.399,15.432 589.132,258.917c176.734,243.485 231.475,566.57 156.024,767.68c-46.831,-182.729 -144.111,-412.723 -288.663,-611.872c-144.553,-199.148 -317.035,-340.804 -456.493,-414.725Z" style="stroke:#000;stroke-width:62.5px;"/><path d="M1569.92,1370.2c-163.588,-79.684 -412.399,15.432 -589.133,258.917c-176.733,243.485 -231.474,566.57 -156.023,767.68c46.831,-182.729 144.111,-412.723 288.663,-611.871c144.553,-199.149 317.035,-340.805 456.493,-414.726Z" style="stroke:#000;stroke-width:62.5px;"/></svg>