<?xml version="1.0" encoding="UTF-8" standalone="no"?><!DOCTYPE svg PUBLIC "-//W3C//DTD SVG 1.1//EN" "http://www.w3.org/Graphics/SVG/1.1/DTD/svg11.dtd"><svg width="100%" height="100%" viewBox="0 0 1711 2468" version="1.1" xmlns="http://www.w3.org/2000/svg" xmlns:xlink="http://www.w3.org/1999/xlink" xml:space="preserve" style="fill-rule:evenodd;clip-rule:evenodd;stroke-linecap:round;stroke-linejoin:round;stroke-miterlimit:1.5;"><g><path d="M110.997,1410.08c163.589,-79.684 412.399,15.432 589.133,258.917c176.734,243.485 231.475,566.57 156.023,767.68c-46.83,-182.729 -144.11,-412.722 -288.663,-611.871c-144.552,-199.149 -317.034,-340.805 -456.493,-414.726Z" style="stroke:#000;stroke-width:62.5px;"/><path d="M1599.72,1398.92c-163.588,-79.684 -412.399,15.432 -589.133,258.917c-176.734,243.485 -231.475,566.57 -156.023,767.68c46.831,-182.728 144.111,-412.722 288.663,-611.871c144.552,-199.149 317.035,-340.805 456.493,-414.726Z" style="stroke:#000;stroke-width:62.5px;"/></g><g><path d="M83.034,521.145l462.535,-448.228l644.007,10.117l448.228,462.535l-10.117,644.007l-462.535,448.228l-644.007,-10.117l-448.228,-462.535l10.117,-644.007Z" style="fill:#f00;stroke:#000;stroke-width:145.83px;"/><g><path d="M1303.51,304.093l-999.414,999.414l103.12,103.12l999.414,-999.414l-103.12,-103.12Z"/><path d="M1406.77,1303.65l-999.693,-999.693l-103.12,103.12l999.693,999.693l103.12,-103.12Z"/></g></g></svg>