<?xml version="1.0" encoding="UTF-8" standalone="no"?><!DOCTYPE svg PUBLIC "-//W3C//DTD SVG 1.1//EN" "http://www.w3.org/Graphics/SVG/1.1/DTD/svg11.dtd"><svg width="100%" height="100%" viewBox="0 0 1745 2580" version="1.1" xmlns="http://www.w3.org/2000/svg" xmlns:xlink="http://www.w3.org/1999/xlink" xml:space="preserve" style="fill-rule:evenodd;clip-rule:evenodd;stroke-linecap:round;stroke-linejoin:round;stroke-miterlimit:1.5;"><path d="M872.179,100.38l781.501,1198.89l-1563,0l781.501,-1198.89Z" style="fill:#f0f300;"/><path d="M872.179,72.917l799.263,1217.07l-799.263,1217.07l-799.262,-1217.07l799.262,-1217.07Z" style="fill:none;stroke:#000;stroke-width:145.83px;"/><g><path d="M1194.48,1123.38l-182.237,15.801l-181.184,-15.801l181.184,-357.101l182.237,357.101Z" style="fill:#1589ad;fill-rule:nonzero;"/><path d="M1012.24,766.275l182.237,357.101l-182.237,15.801" style="fill:#035670;fill-rule:nonzero;"/><path d="M1090.19,1116l-267.562,23.175l-270.722,-17.908l270.722,-530.911l267.562,525.644Z" style="fill:#1589ad;fill-rule:nonzero;"/><path d="M822.633,590.358l270.722,530.911l-270.722,17.908" style="fill:#057091;fill-rule:nonzero;"/><path d="M865.822,851.6l43.189,43.189l45.296,-44.242l-131.674,-260.189l-132.728,260.189l45.296,44.242l43.189,-43.189l44.243,43.189l43.189,-43.189Z" style="fill:#9adfef;fill-rule:nonzero;"/><path d="M822.633,894.789l43.189,-43.189l43.189,43.189l45.296,-44.242l-131.674,-260.189" style="fill:#7dd4e2;fill-rule:nonzero;"/><rect x="547.697" y="1118.11" width="648.964" height="21.068" style="fill:#057091;"/></g><path d="M1651.46,1276.66c0,-19.605 -15.917,-35.522 -35.523,-35.522l-1487.52,0c-19.606,0 -35.523,15.917 -35.523,35.522l0,71.046c0,19.606 15.917,35.523 35.523,35.523l1487.52,0c19.606,0 35.523,-15.917 35.523,-35.523l0,-71.046Z"/></svg>